# xmcd
#
# Track frame offsets: 
#        185
#        17670
#        34935
#        51522
#        72717
#        89235
#        113375
#        130452
#        145712
#        161800
#
# Disc length: 2368 seconds
#
# Revision: 1
# Processed by: cddbd v1.5.2PL0 Copyright (c) Steve Scherf et al.
# Submitted via: ExactAudioCopyFreeDBPlugin 1.0
#
DISCID=95093e0a
DTITLE=Floyd Miles - Crazy Man
DYEAR=1992
DGENRE=Rhythm and Blues
TTITLE0=Cold, Cold World
TTITLE1=I Been Missing You
TTITLE2=Poor Boy
TTITLE3=Sick and Tired
TTITLE4=I Need Love
TTITLE5=Crazy Man
TTITLE6=Making Believe
TTITLE7=I Got the Burn
TTITLE8=No Meat in the Stew
TTITLE9=Sometimes (That's What My Mother Told Me)
EXTD=YEAR: 1992
EXTT0=
EXTT1=
EXTT2=
EXTT3=
EXTT4=
EXTT5=
EXTT6=
EXTT7=
EXTT8=
EXTT9=
PLAYORDER=
